<svg xmlns="http://www.w3.org/2000/svg" width="24" height="24" viewBox="0 0 24 24" fill="none" stroke="currentColor" stroke-width="1.5" stroke-linecap="round" stroke-linejoin="round" aria-hidden="true">
  <!--
    Sherlock Holmes (side profile) — Lucide stroke style
    Geometry from first-try holmes.svg; polylines refit to cubic curves.
  -->
  <!-- Deerstalker hat (side silhouette) -->
  <path d="M6.5 8.3
    C9.2 8.5 11.5 9.1 14 9.9
    C16.2 10.7 18.1 11.7 19.8 13
    C20.4 13.2 20.6 12.9 20.5 12.3
    C20.3 11.2 19.4 9.8 18.9 8.2
    C18.3 6.4 17.2 4.8 15.5 3.9
    C14.4 3.4 13.1 3.4 11.4 3.9
    C9.8 4.5 8.5 5.6 7.4 6.7
    C6.5 7.5 5.5 7.7 5.5 8.2
    C5.5 8.4 5.9 8.4 6.5 8.3Z"/>
  <!-- Pipe stem (above hat rear) -->
  <path d="M12.4 1.6
    C13.5 2.1 14.3 2.7 15.1 3.7
    C15.6 3.5 16.4 3.4 17.3 3.5
    C18 3.5 18.7 3.7 18.7 3.7"/>
  <!-- Pipe / rear drop -->
  <path d="M18.2 12
    C18 12.9 17.7 13.7 17.3 14.5"/>
  <!-- Face profile (brow → nose → mouth line) -->
  <path d="M8.3 8.6
    C7.7 10.6 6.8 12.4 6.2 13.6
    H8.2"/>
  <!-- Collar / shoulder curve -->
  <path d="M8.2 13.6
    V16.3
    C8.2 17 8.5 17.5 9.1 17.8
    C9.7 18 10.4 17.9 11.5 17.2"/>
  <!-- Coat left edge -->
  <path d="M6.3 18.8
    V16.1
    C6.3 15.5 6.7 15.1 7.2 14.9
    C7.6 14.8 8 14.9 8.1 14.9"/>
  <!-- Cape / coat hem (flowing right) -->
  <path d="M11.5 19.7
    V16
    C11.5 15.5 11.8 15.2 12.3 15.1
    L18.5 14.2
    V16.9
    H17.3
    C16.5 16.9 15.9 17.3 15.3 18.1
    C14.5 19.3 13.5 20.7 12.4 21.4
    C11.8 21.7 11.2 21.8 10.3 21.8"/>
  <!-- Foot -->
  <path d="M3.5 18.9
    H6.3
    V20.2
    A1.4 1.4 0 0 1 3.5 20.2
    Z"/>
</svg>
